<?xml version="1.0" encoding="UTF-8" standalone="no"?>
<svg
   xmlns:dc="http://purl.org/dc/elements/1.1/"
   xmlns:cc="http://creativecommons.org/ns#"
   xmlns:rdf="http://www.w3.org/1999/02/22-rdf-syntax-ns#"
   xmlns:svg="http://www.w3.org/2000/svg"
   xmlns="http://www.w3.org/2000/svg"
   id="svg4352"
   version="1.1"
   height="380px"
   width="30">
  <metadata
     id="metadata15">
    <rdf:RDF>
      <cc:Work
         rdf:about="">
        <dc:format>image/svg+xml</dc:format>
        <dc:type
           rdf:resource="http://purl.org/dc/dcmitype/StillImage" />
      </cc:Work>
    </rdf:RDF>
  </metadata>
  <defs
     id="defs13" />
  <g
     id="background">
    <path
       id="rect4255"
       d="m 0,0 30,0 0,380 -30,0 z"
       style="fill:#294f77;stroke:none" />
    <path
       id="path4356"
       d="M 0,380 0,0 30,0 29,1 1,1 1,379 Z"
       style="fill:#3a6ea5;fill-rule:nonzero;stroke:none" />
    <path
       id="path4358"
       d="m 0,380 30,0 0,-380 -1,1 0,378 -28,0 z"
       style="fill:#182d44;fill-rule:nonzero;stroke:none" />
  </g>
  <g
     style="font-size:12px;font-family:'DejaVu Sans';fill:#719fcf"
     font-size="12"
     id="logo">
    <path
       id="path4136"
       d="m 14.35391,366 a 1.9846094,2.2519786 0 0 0 -1.98465,2.25192 1.9846094,2.2519786 0 0 0 0.0588,0.53167 A 8.1692063,5.1693144 0 0 0 6,373.83071 8.1692063,5.1693144 0 0 0 14.16915,379 8.1692063,5.1693144 0 0 0 21.48278,376.11985 3.0461447,4.2480502 0 0 0 24,377.97641 l 0,-2.35772 A 1.3384576,1.9448905 0 0 1 22.7077,373.67718 1.3384576,1.9448905 0 0 1 24,371.73455 l 0,-2.25416 a 3.0461447,4.2480502 0 0 0 -2.57413,1.97944 8.1692063,5.1693144 0 0 0 -7.25672,-2.79842 8.1692063,5.1693144 0 0 0 -0.37318,0.0119 1.7538409,2.0472531 0 0 1 0.69638,-1.00162 l 0,-1.66609 A 1.9846094,2.2519786 0 0 0 14.35391,366 Z m -3.27707,5.83461 a 1.6615335,1.8425278 0 0 1 1.66156,1.84257 1.6615335,1.8425278 0 0 1 -1.66156,1.84257 1.6615335,1.8425278 0 0 1 -1.66145,-1.84257 1.6615335,1.8425278 0 0 1 1.66145,-1.84257 z m 3.78465,0.40949 a 1.2923038,1.4330772 0 0 1 1.29231,1.43308 1.2923038,1.4330772 0 0 1 -1.29231,1.43308 1.2923038,1.4330772 0 0 1 -1.2923,-1.43308 1.2923038,1.4330772 0 0 1 1.2923,-1.43308 z m 3.00928,0.38892 a 0.92307415,1.0236265 0 0 1 0.92304,1.02373 0.92307415,1.0236265 0 0 1 -0.92304,1.02359 0.92307415,1.0236265 0 0 1 -0.92317,-1.02359 0.92307415,1.0236265 0 0 1 0.92317,-1.02373 z" />
    <g
       id="text9"
       style="font-size:8px;text-anchor:middle">
      <path
         id="path19"
         style="font-size:8px;text-anchor:middle"
         d="m 1.4179687,4.8164062 0,4.5351563 0.9531251,0 q 1.2070312,0 1.7656249,-0.546875 0.5625,-0.546875 0.5625,-1.7265625 0,-1.171875 -0.5625,-1.7148438 Q 3.578125,4.8164062 2.3710938,4.8164062 l -0.9531251,0 z m -0.78906245,-0.6484375 1.62109375,0 q 1.6953125,0 2.4882812,0.7070313 0.7929688,0.703125 0.7929688,2.203125 0,1.5078125 -0.796875,2.2148438 Q 3.9375,10 2.25,10 l -1.62109375,0 0,-5.8320313 z" />
      <path
         id="path21"
         style="font-size:8px;text-anchor:middle"
         d="m 6.7851562,4.1679687 1.0625,0 2.5859378,4.8789063 0,-4.8789063 0.765625,0 0,5.8320313 -1.0625,0 -2.5859378,-4.8789063 0,4.8789063 -0.765625,0 0,-5.8320313 z" />
      <path
         id="path23"
         style="font-size:8px;text-anchor:middle"
         d="m 12.375,7.4882812 2.105469,0 0,0.6406251 -2.105469,0 0,-0.6406251 z" />
      <path
         id="path25"
         style="font-size:8px;text-anchor:middle"
         d="m 15.867188,9.3359375 1.289062,0 0,-4.4492188 -1.402344,0.28125 0,-0.71875 1.394531,-0.28125 0.789063,0 0,5.1679688 1.289062,0 0,0.6640625 -3.359374,0 0,-0.6640625 z" />
      <path
         id="path27"
         style="font-size:8px;text-anchor:middle"
         d="m 20.960937,9.3359375 1.289063,0 0,-4.4492188 -1.402344,0.28125 0,-0.71875 1.394531,-0.28125 0.789063,0 0,5.1679688 1.289062,0 0,0.6640625 -3.359375,0 0,-0.6640625 z" />
      <path
         id="path29"
         style="font-size:8px;text-anchor:middle"
         d="m 26.597656,9.3359375 2.753906,0 0,0.6640625 -3.703125,0 0,-0.6640625 Q 26.097656,8.8710938 26.871094,8.0898438 27.648437,7.3046875 27.847656,7.078125 28.226562,6.6523437 28.375,6.359375 28.527344,6.0625 28.527344,5.7773437 28.527344,5.3125 28.199219,5.0195312 27.875,4.7265625 27.351562,4.7265625 q -0.371093,0 -0.785156,0.1289062 Q 26.15625,4.984375 25.6875,5.2460937 l 0,-0.796875 Q 26.164062,4.2578125 26.578125,4.1601562 26.992187,4.0625 27.335937,4.0625 q 0.90625,0 1.445313,0.453125 0.539062,0.453125 0.539062,1.2109375 0,0.359375 -0.136718,0.6835937 -0.132813,0.3203125 -0.488282,0.7578125 -0.09766,0.1132813 -0.621093,0.65625 -0.523438,0.5390626 -1.476563,1.5117188 z" />
    </g>
  </g>
</svg>
