<?xml version="1.0" encoding="UTF-8" standalone="no"?>
<svg
   xmlns:dc="http://purl.org/dc/elements/1.1/"
   xmlns:cc="http://creativecommons.org/ns#"
   xmlns:rdf="http://www.w3.org/1999/02/22-rdf-syntax-ns#"
   xmlns:svg="http://www.w3.org/2000/svg"
   xmlns="http://www.w3.org/2000/svg"
   id="svg2"
   version="1.1"
   height="380px"
   width="300px">
  <metadata
     id="metadata52">
    <rdf:RDF>
      <cc:Work
         rdf:about="">
        <dc:format>image/svg+xml</dc:format>
        <dc:type
           rdf:resource="http://purl.org/dc/dcmitype/StillImage" />
      </cc:Work>
    </rdf:RDF>
  </metadata>
  <defs
     id="defs50" />
  <g
     id="background">
    <path
       id="rect4255"
       d="m 0,0 300,0 0,380 -300,0 z"
       style="fill:#294f77;stroke:none" />
    <path
       id="path4230"
       d="M 0,380 0,0 300,0 299,1 1,1 1,379 Z"
       style="fill:#3a6ea5;fill-rule:nonzero;stroke:none" />
    <path
       id="path4232"
       d="m 0,380 300,0 0,-380 -1,1 0,378 -298,0 z"
       style="fill:#182d44;fill-rule:nonzero;stroke:none" />
  </g>
  <g
     style="font-size:12px;font-family:'DejaVu Sans';fill:#719fcf"
     font-size="12"
     id="logo">
    <path
       id="path4136"
       d="m 289.35391,366 a 1.9846094,2.2519786 0 0 0 -1.98465,2.25192 1.9846094,2.2519786 0 0 0 0.0588,0.53167 A 8.1692063,5.1693144 0 0 0 281,373.83071 8.1692063,5.1693144 0 0 0 289.16915,379 8.1692063,5.1693144 0 0 0 296.48278,376.11985 3.0461447,4.2480502 0 0 0 299,377.97641 l 0,-2.35772 a 1.3384576,1.9448905 0 0 1 -1.2923,-1.94151 1.3384576,1.9448905 0 0 1 1.2923,-1.94263 l 0,-2.25416 a 3.0461447,4.2480502 0 0 0 -2.57413,1.97944 8.1692063,5.1693144 0 0 0 -7.25672,-2.79842 8.1692063,5.1693144 0 0 0 -0.37318,0.0119 1.7538409,2.0472531 0 0 1 0.69638,-1.00162 l 0,-1.66609 A 1.9846094,2.2519786 0 0 0 289.35391,366 Z m -3.27707,5.83461 a 1.6615335,1.8425278 0 0 1 1.66156,1.84257 1.6615335,1.8425278 0 0 1 -1.66156,1.84257 1.6615335,1.8425278 0 0 1 -1.66145,-1.84257 1.6615335,1.8425278 0 0 1 1.66145,-1.84257 z m 3.78465,0.40949 a 1.2923038,1.4330772 0 0 1 1.29231,1.43308 1.2923038,1.4330772 0 0 1 -1.29231,1.43308 1.2923038,1.4330772 0 0 1 -1.2923,-1.43308 1.2923038,1.4330772 0 0 1 1.2923,-1.43308 z m 3.00928,0.38892 a 0.92307415,1.0236265 0 0 1 0.92304,1.02373 0.92307415,1.0236265 0 0 1 -0.92304,1.02359 0.92307415,1.0236265 0 0 1 -0.92317,-1.02359 0.92307415,1.0236265 0 0 1 0.92317,-1.02373 z" />
    <g
       id="text4236"
       style="">
      <path
         id="path56"
         style=""
         d="m 8.3144531,370.63086 0,1.01953 q -0.4570312,-0.23437 -0.9492187,-0.35156 -0.4921875,-0.11719 -1.0195313,-0.11719 -0.8027344,0 -1.2070312,0.24609 -0.3984375,0.2461 -0.3984375,0.73829 0,0.375 0.2871093,0.59179 0.2871094,0.21094 1.1542969,0.4043 l 0.3691406,0.082 q 1.1484375,0.24609 1.6289063,0.69727 0.4863281,0.44531 0.4863281,1.24804 0,0.91407 -0.7265625,1.44727 -0.7207031,0.5332 -1.9863281,0.5332 -0.5273438,0 -1.1015625,-0.10547 -0.5683594,-0.0996 -1.2011719,-0.30468 l 0,-1.11329 q 0.5976563,0.31055 1.1777344,0.46875 0.5800781,0.15235 1.1484375,0.15235 0.7617187,0 1.171875,-0.25781 0.4101562,-0.26368 0.4101562,-0.73829 0,-0.43945 -0.2988281,-0.67382 -0.2929687,-0.23438 -1.2949219,-0.45118 l -0.375,-0.0879 q -1.0019531,-0.21093 -1.4472656,-0.64453 -0.4453125,-0.43945 -0.4453125,-1.20117 0,-0.92578 0.65625,-1.42969 0.65625,-0.5039 1.8632813,-0.5039 0.5976562,0 1.125,0.0879 0.5273437,0.0879 0.9726562,0.26367 z" />
      <path
         id="path58"
         style=""
         d="m 10.277344,374.41016 0,-3.97266 1.078125,0 0,3.93164 q 0,0.93164 0.363281,1.40039 0.363281,0.46289 1.089844,0.46289 0.873047,0 1.376953,-0.55664 0.509766,-0.55664 0.509766,-1.51758 l 0,-3.7207 1.078125,0 0,6.5625 -1.078125,0 0,-1.00781 q -0.392579,0.59765 -0.914063,0.89062 -0.515625,0.28711 -1.201172,0.28711 -1.130859,0 -1.716797,-0.70312 -0.585937,-0.70313 -0.585937,-2.05664 z m 2.71289,-4.13086 0,0 z" />
      <path
         id="path60"
         style=""
         d="m 22.716797,373.72461 q 0,-1.18945 -0.492188,-1.86328 -0.486328,-0.67969 -1.341797,-0.67969 -0.855468,0 -1.347656,0.67969 -0.486328,0.67383 -0.486328,1.86328 0,1.18945 0.486328,1.86914 0.492188,0.67383 1.347656,0.67383 0.855469,0 1.341797,-0.67383 0.492188,-0.67969 0.492188,-1.86914 z m -3.667969,-2.29102 q 0.339844,-0.58593 0.855469,-0.86718 0.521484,-0.28711 1.242187,-0.28711 1.195313,0 1.939453,0.94922 0.75,0.94921 0.75,2.49609 0,1.54687 -0.75,2.49609 -0.74414,0.94922 -1.939453,0.94922 -0.720703,0 -1.242187,-0.28125 -0.515625,-0.28711 -0.855469,-0.87305 l 0,0.98438 -1.083984,0 0,-9.11719 1.083984,0 0,3.55078 z" />
      <path
         id="path62"
         style=""
         d="m 30.732422,371.69727 q 0.404297,-0.72657 0.966797,-1.07227 0.5625,-0.3457 1.324218,-0.3457 1.025391,0 1.582032,0.7207 0.55664,0.71484 0.55664,2.03906 l 0,3.96094 -1.083984,0 0,-3.92578 q 0,-0.94336 -0.333984,-1.40039 -0.333985,-0.45703 -1.019532,-0.45703 -0.83789,0 -1.324218,0.55664 -0.486329,0.55664 -0.486329,1.51758 l 0,3.70898 -1.083984,0 0,-3.92578 q 0,-0.94922 -0.333984,-1.40039 -0.333985,-0.45703 -1.03125,-0.45703 -0.826172,0 -1.3125,0.5625 -0.486328,0.55664 -0.486328,1.51172 l 0,3.70898 -1.083985,0 0,-6.5625 1.083985,0 0,1.01953 q 0.36914,-0.60351 0.884765,-0.89062 0.515625,-0.28711 1.22461,-0.28711 0.714843,0 1.21289,0.36328 0.503906,0.36328 0.744141,1.05469 z" />
      <path
         id="path64"
         style=""
         d="m 40.300781,373.70117 q -1.30664,0 -1.810547,0.29883 -0.503906,0.29883 -0.503906,1.01953 0,0.57422 0.375,0.91406 0.380859,0.33399 1.03125,0.33399 0.896484,0 1.435547,-0.63281 0.544922,-0.63868 0.544922,-1.69336 l 0,-0.24024 -1.072266,0 z m 2.150391,-0.44531 0,3.74414 -1.078125,0 0,-0.99609 q -0.369141,0.59765 -0.919922,0.88476 -0.550781,0.28125 -1.347656,0.28125 -1.007813,0 -1.605469,-0.5625 -0.591797,-0.56836 -0.591797,-1.51758 0,-1.10742 0.738281,-1.66992 0.744141,-0.5625 2.214844,-0.5625 l 1.511719,0 0,-0.10547 q 0,-0.74414 -0.492188,-1.14843 -0.486328,-0.41016 -1.371093,-0.41016 -0.5625,0 -1.095704,0.13476 -0.533203,0.13477 -1.02539,0.4043 l 0,-0.99609 q 0.591797,-0.22852 1.148437,-0.33985 0.556641,-0.11718 1.083985,-0.11718 1.423828,0 2.126953,0.73828 0.703125,0.73828 0.703125,2.23828 z" />
      <path
         id="path66"
         style=""
         d="m 48.480469,371.44531 q -0.181641,-0.10547 -0.398438,-0.15234 -0.210937,-0.0527 -0.46875,-0.0527 -0.914062,0 -1.40625,0.59766 -0.486328,0.5918 -0.486328,1.70508 l 0,3.45703 -1.083984,0 0,-6.5625 1.083984,0 0,1.01953 q 0.339844,-0.59766 0.884766,-0.88476 0.544922,-0.29297 1.324218,-0.29297 0.111329,0 0.246094,0.0176 0.134766,0.0117 0.298828,0.041 l 0.0059,1.10742 z" />
      <path
         id="path68"
         style=""
         d="m 49.623047,370.4375 1.078125,0 0,6.5625 -1.078125,0 0,-6.5625 z m 0,-2.55469 1.078125,0 0,1.36524 -1.078125,0 0,-1.36524 z" />
      <path
         id="path70"
         style=""
         d="m 58.40625,373.03906 0,3.96094 -1.078125,0 0,-3.92578 q 0,-0.93164 -0.363281,-1.39453 -0.363282,-0.46289 -1.089844,-0.46289 -0.873047,0 -1.376953,0.55664 -0.503906,0.55664 -0.503906,1.51758 l 0,3.70898 -1.083985,0 0,-6.5625 1.083985,0 0,1.01953 q 0.386718,-0.5918 0.908203,-0.88476 0.527343,-0.29297 1.21289,-0.29297 1.13086,0 1.710938,0.70312 0.580078,0.69727 0.580078,2.05664 z" />
      <path
         id="path72"
         style=""
         d="m 66.181641,373.44922 0,0.52734 -4.957032,0 q 0.07031,1.11328 0.667969,1.69922 0.603516,0.58008 1.675781,0.58008 0.621094,0 1.201172,-0.15234 0.585938,-0.15235 1.160156,-0.45704 l 0,1.01954 q -0.580078,0.24609 -1.189453,0.375 -0.609375,0.1289 -1.236328,0.1289 -1.570312,0 -2.490234,-0.91406 -0.914063,-0.91406 -0.914063,-2.47266 0,-1.61133 0.867188,-2.55468 0.873047,-0.94922 2.349609,-0.94922 1.324219,0 2.091797,0.85547 0.773438,0.8496 0.773438,2.31445 z m -1.078125,-0.31641 q -0.01172,-0.88476 -0.498047,-1.41211 -0.480469,-0.52734 -1.277344,-0.52734 -0.902344,0 -1.447266,0.50976 -0.539062,0.50977 -0.621093,1.43555 l 3.84375,-0.006 z" />
    </g>
    <g
       id="text4241"
       style="text-anchor:middle">
      <path
         id="path75"
         style="text-anchor:middle"
         d="m 130.0957,3.2519531 1.1836,0 0,7.7519529 4.25976,0 0,0.996094 -5.44336,0 0,-8.7480469 z" />
      <path
         id="path77"
         style="text-anchor:middle"
         d="m 139.98047,4.4179687 -1.60547,4.3535157 3.2168,0 -1.61133,-4.3535157 z m -0.66797,-1.1660156 1.3418,0 L 143.98828,12 l -1.23047,0 -0.79687,-2.2441406 -3.94336,0 L 137.2207,12 l -1.24804,0 3.33984,-8.7480469 z" />
      <path
         id="path79"
         style="text-anchor:middle"
         d="m 144.41016,8.2324219 3.1582,0 0,0.9609375 -3.1582,0 0,-0.9609375 z" />
      <path
         id="path81"
         style="text-anchor:middle"
         d="m 149.64844,11.003906 1.93359,0 0,-6.6738279 -2.10351,0.421875 0,-1.078125 2.09179,-0.421875 1.1836,0 0,7.7519529 1.93359,0 0,0.996094 -5.03906,0 0,-0.996094 z" />
      <path
         id="path83"
         style="text-anchor:middle"
         d="m 159.61523,4.03125 q -0.91406,0 -1.37695,0.9023437 -0.45703,0.8964844 -0.45703,2.7011719 0,1.7988282 0.45703,2.7011724 0.46289,0.896484 1.37695,0.896484 0.91993,0 1.37696,-0.896484 0.46289,-0.9023442 0.46289,-2.7011724 0,-1.8046875 -0.46289,-2.7011719 Q 160.53516,4.03125 159.61523,4.03125 Z m 0,-0.9375 q 1.47071,0 2.24414,1.1660156 0.7793,1.1601563 0.7793,3.375 0,2.2089844 -0.7793,3.3750004 -0.77343,1.160156 -2.24414,1.160156 -1.4707,0 -2.25,-1.160156 -0.77343,-1.166016 -0.77343,-3.3750004 0,-2.2148437 0.77343,-3.375 0.7793,-1.1660156 2.25,-1.1660156 z" />
      <path
         id="path85"
         style="text-anchor:middle"
         d="m 167.25586,7.8457031 q -0.84375,0 -1.33008,0.4511719 -0.48047,0.4511719 -0.48047,1.2421875 0,0.7910155 0.48047,1.2421875 0.48633,0.451172 1.33008,0.451172 0.84375,0 1.33008,-0.451172 0.48633,-0.457031 0.48633,-1.2421875 0,-0.7910156 -0.48633,-1.2421875 -0.48047,-0.4511719 -1.33008,-0.4511719 z m -1.18359,-0.5039062 q -0.76172,-0.1875 -1.18946,-0.7089844 -0.42187,-0.5214844 -0.42187,-1.2714844 0,-1.0488281 0.74414,-1.6582031 0.75,-0.609375 2.05078,-0.609375 1.30664,0 2.05078,0.609375 0.74414,0.609375 0.74414,1.6582031 0,0.75 -0.42773,1.2714844 -0.42188,0.5214844 -1.17774,0.7089844 0.85547,0.1992187 1.33008,0.7792969 0.48047,0.5800781 0.48047,1.4179687 0,1.2714845 -0.7793,1.9511715 -0.77344,0.679688 -2.2207,0.679688 -1.44727,0 -2.22656,-0.679688 -0.77344,-0.679687 -0.77344,-1.9511715 0,-0.8378906 0.48047,-1.4179687 0.48047,-0.5800782 1.33594,-0.7792969 z m -0.4336,-1.8691407 q 0,0.6796875 0.42188,1.0605469 0.42773,0.3808594 1.19531,0.3808594 0.76172,0 1.18945,-0.3808594 0.4336,-0.3808594 0.4336,-1.0605469 0,-0.6796875 -0.4336,-1.0605468 -0.42773,-0.3808594 -1.18945,-0.3808594 -0.76758,0 -1.19531,0.3808594 -0.42188,0.3808593 -0.42188,1.0605468 z" />
    </g>
  </g>
  <g
     style="fill:#000000;stroke:none"
     id="scope">
    <path
       id="rect4244"
       d="m 42,15 256,0 0,280 -256,0 z"
       style="" />
  </g>
  <g
     style="fill:none;stroke:#555555"
     id="grid">
    <path
       id="line15"
       d="m 42,32.5 256,0"
       style="" />
    <path
       id="line17"
       d="m 42,67.5 256,0"
       style="" />
    <path
       id="line19"
       d="m 42,102.5 256,0"
       style="" />
    <path
       id="line21"
       d="m 42,137.5 256,0"
       style="" />
    <path
       id="line23"
       d="m 42,172.5 256,0"
       style="" />
    <path
       id="line25"
       d="m 42,207.5 256,0"
       style="" />
    <path
       id="line27"
       d="m 42,242.5 256,0"
       style="" />
    <path
       id="line29"
       d="m 42,277.5 256,0"
       style="" />
  </g>
  <g
     style="fill:none;stroke:#ffffff"
     id="screen">
    <path
       id="line32"
       d="m 16.5,32.5 25.5,0"
       style="" />
    <path
       id="line34"
       d="m 16.5,67.5 25.5,0"
       style="" />
    <path
       id="line36"
       d="m 16.5,102.5 25.5,0"
       style="" />
    <path
       id="line38"
       d="m 16.5,137.5 25.5,0"
       style="" />
    <path
       id="line40"
       d="m 16.5,172.5 25.5,0"
       style="" />
    <path
       id="line42"
       d="m 16.5,207.5 25.5,0"
       style="" />
    <path
       id="line44"
       d="m 16.5,242.5 25.5,0"
       style="" />
    <path
       id="line46"
       d="m 16.5,277.5 25.5,0"
       style="" />
  </g>
</svg>
