<?xml version="1.0" encoding="UTF-8" standalone="no"?>
<svg
   xmlns:dc="http://purl.org/dc/elements/1.1/"
   xmlns:cc="http://creativecommons.org/ns#"
   xmlns:rdf="http://www.w3.org/1999/02/22-rdf-syntax-ns#"
   xmlns:svg="http://www.w3.org/2000/svg"
   xmlns="http://www.w3.org/2000/svg"
   id="svg4652"
   version="1.1"
   height="380px"
   width="150px">
  <metadata
     id="metadata72">
    <rdf:RDF>
      <cc:Work
         rdf:about="">
        <dc:format>image/svg+xml</dc:format>
        <dc:type
           rdf:resource="http://purl.org/dc/dcmitype/StillImage" />
      </cc:Work>
    </rdf:RDF>
  </metadata>
  <defs
     id="defs70" />
  <g
     id="background">
    <path
       id="rect4255"
       d="m 0,0 150,0 0,380 -150,0 z"
       style="fill:#294f77;stroke:none" />
    <path
       id="path4656"
       d="M 0,380 0,0 150,0 149,1 1,1 1,379 Z"
       style="fill:#3a6ea5;fill-rule:nonzero;stroke:none" />
    <path
       id="path4658"
       d="m 0,380 150,0 0,-380 -1,1 0,378 -148,0 z"
       style="fill:#182d44;fill-rule:nonzero;stroke:none" />
  </g>
  <g
     style="font-size:12px;font-family:'DejaVu Sans';fill:#719fcf;stroke:none"
     font-size="12"
     id="logo">
    <path
       id="path4136"
       d="m 139.35391,366 a 1.9846094,2.2519786 0 0 0 -1.98465,2.25192 1.9846094,2.2519786 0 0 0 0.0588,0.53167 A 8.1692063,5.1693144 0 0 0 131,373.83071 8.1692063,5.1693144 0 0 0 139.16915,379 8.1692063,5.1693144 0 0 0 146.48278,376.11985 3.0461447,4.2480502 0 0 0 149,377.97641 l 0,-2.35772 a 1.3384576,1.9448905 0 0 1 -1.2923,-1.94151 1.3384576,1.9448905 0 0 1 1.2923,-1.94263 l 0,-2.25416 a 3.0461447,4.2480502 0 0 0 -2.57413,1.97944 8.1692063,5.1693144 0 0 0 -7.25672,-2.79842 8.1692063,5.1693144 0 0 0 -0.37318,0.0119 1.7538409,2.0472531 0 0 1 0.69638,-1.00162 l 0,-1.66609 A 1.9846094,2.2519786 0 0 0 139.35391,366 Z m -3.27707,5.83461 a 1.6615335,1.8425278 0 0 1 1.66156,1.84257 1.6615335,1.8425278 0 0 1 -1.66156,1.84257 1.6615335,1.8425278 0 0 1 -1.66145,-1.84257 1.6615335,1.8425278 0 0 1 1.66145,-1.84257 z m 3.78465,0.40949 a 1.2923038,1.4330772 0 0 1 1.29231,1.43308 1.2923038,1.4330772 0 0 1 -1.29231,1.43308 1.2923038,1.4330772 0 0 1 -1.2923,-1.43308 1.2923038,1.4330772 0 0 1 1.2923,-1.43308 z m 3.00928,0.38892 a 0.92307415,1.0236265 0 0 1 0.92304,1.02373 0.92307415,1.0236265 0 0 1 -0.92304,1.02359 0.92307415,1.0236265 0 0 1 -0.92317,-1.02359 0.92307415,1.0236265 0 0 1 0.92317,-1.02373 z" />
    <g
       id="text4662"
       style="">
      <path
         id="path76"
         style=""
         d="m 8.3144531,370.63086 0,1.01953 q -0.4570312,-0.23437 -0.9492187,-0.35156 -0.4921875,-0.11719 -1.0195313,-0.11719 -0.8027344,0 -1.2070312,0.24609 -0.3984375,0.2461 -0.3984375,0.73829 0,0.375 0.2871093,0.59179 0.2871094,0.21094 1.1542969,0.4043 l 0.3691406,0.082 q 1.1484375,0.24609 1.6289063,0.69727 0.4863281,0.44531 0.4863281,1.24804 0,0.91407 -0.7265625,1.44727 -0.7207031,0.5332 -1.9863281,0.5332 -0.5273438,0 -1.1015625,-0.10547 -0.5683594,-0.0996 -1.2011719,-0.30468 l 0,-1.11329 q 0.5976563,0.31055 1.1777344,0.46875 0.5800781,0.15235 1.1484375,0.15235 0.7617187,0 1.171875,-0.25781 0.4101562,-0.26368 0.4101562,-0.73829 0,-0.43945 -0.2988281,-0.67382 -0.2929687,-0.23438 -1.2949219,-0.45118 l -0.375,-0.0879 q -1.0019531,-0.21093 -1.4472656,-0.64453 -0.4453125,-0.43945 -0.4453125,-1.20117 0,-0.92578 0.65625,-1.42969 0.65625,-0.5039 1.8632813,-0.5039 0.5976562,0 1.125,0.0879 0.5273437,0.0879 0.9726562,0.26367 z" />
      <path
         id="path78"
         style=""
         d="m 10.277344,374.41016 0,-3.97266 1.078125,0 0,3.93164 q 0,0.93164 0.363281,1.40039 0.363281,0.46289 1.089844,0.46289 0.873047,0 1.376953,-0.55664 0.509766,-0.55664 0.509766,-1.51758 l 0,-3.7207 1.078125,0 0,6.5625 -1.078125,0 0,-1.00781 q -0.392579,0.59765 -0.914063,0.89062 -0.515625,0.28711 -1.201172,0.28711 -1.130859,0 -1.716797,-0.70312 -0.585937,-0.70313 -0.585937,-2.05664 z m 2.71289,-4.13086 0,0 z" />
      <path
         id="path80"
         style=""
         d="m 22.716797,373.72461 q 0,-1.18945 -0.492188,-1.86328 -0.486328,-0.67969 -1.341797,-0.67969 -0.855468,0 -1.347656,0.67969 -0.486328,0.67383 -0.486328,1.86328 0,1.18945 0.486328,1.86914 0.492188,0.67383 1.347656,0.67383 0.855469,0 1.341797,-0.67383 0.492188,-0.67969 0.492188,-1.86914 z m -3.667969,-2.29102 q 0.339844,-0.58593 0.855469,-0.86718 0.521484,-0.28711 1.242187,-0.28711 1.195313,0 1.939453,0.94922 0.75,0.94921 0.75,2.49609 0,1.54687 -0.75,2.49609 -0.74414,0.94922 -1.939453,0.94922 -0.720703,0 -1.242187,-0.28125 -0.515625,-0.28711 -0.855469,-0.87305 l 0,0.98438 -1.083984,0 0,-9.11719 1.083984,0 0,3.55078 z" />
      <path
         id="path82"
         style=""
         d="m 30.732422,371.69727 q 0.404297,-0.72657 0.966797,-1.07227 0.5625,-0.3457 1.324218,-0.3457 1.025391,0 1.582032,0.7207 0.55664,0.71484 0.55664,2.03906 l 0,3.96094 -1.083984,0 0,-3.92578 q 0,-0.94336 -0.333984,-1.40039 -0.333985,-0.45703 -1.019532,-0.45703 -0.83789,0 -1.324218,0.55664 -0.486329,0.55664 -0.486329,1.51758 l 0,3.70898 -1.083984,0 0,-3.92578 q 0,-0.94922 -0.333984,-1.40039 -0.333985,-0.45703 -1.03125,-0.45703 -0.826172,0 -1.3125,0.5625 -0.486328,0.55664 -0.486328,1.51172 l 0,3.70898 -1.083985,0 0,-6.5625 1.083985,0 0,1.01953 q 0.36914,-0.60351 0.884765,-0.89062 0.515625,-0.28711 1.22461,-0.28711 0.714843,0 1.21289,0.36328 0.503906,0.36328 0.744141,1.05469 z" />
      <path
         id="path84"
         style=""
         d="m 40.300781,373.70117 q -1.30664,0 -1.810547,0.29883 -0.503906,0.29883 -0.503906,1.01953 0,0.57422 0.375,0.91406 0.380859,0.33399 1.03125,0.33399 0.896484,0 1.435547,-0.63281 0.544922,-0.63868 0.544922,-1.69336 l 0,-0.24024 -1.072266,0 z m 2.150391,-0.44531 0,3.74414 -1.078125,0 0,-0.99609 q -0.369141,0.59765 -0.919922,0.88476 -0.550781,0.28125 -1.347656,0.28125 -1.007813,0 -1.605469,-0.5625 -0.591797,-0.56836 -0.591797,-1.51758 0,-1.10742 0.738281,-1.66992 0.744141,-0.5625 2.214844,-0.5625 l 1.511719,0 0,-0.10547 q 0,-0.74414 -0.492188,-1.14843 -0.486328,-0.41016 -1.371093,-0.41016 -0.5625,0 -1.095704,0.13476 -0.533203,0.13477 -1.02539,0.4043 l 0,-0.99609 q 0.591797,-0.22852 1.148437,-0.33985 0.556641,-0.11718 1.083985,-0.11718 1.423828,0 2.126953,0.73828 0.703125,0.73828 0.703125,2.23828 z" />
      <path
         id="path86"
         style=""
         d="m 48.480469,371.44531 q -0.181641,-0.10547 -0.398438,-0.15234 -0.210937,-0.0527 -0.46875,-0.0527 -0.914062,0 -1.40625,0.59766 -0.486328,0.5918 -0.486328,1.70508 l 0,3.45703 -1.083984,0 0,-6.5625 1.083984,0 0,1.01953 q 0.339844,-0.59766 0.884766,-0.88476 0.544922,-0.29297 1.324218,-0.29297 0.111329,0 0.246094,0.0176 0.134766,0.0117 0.298828,0.041 l 0.0059,1.10742 z" />
      <path
         id="path88"
         style=""
         d="m 49.623047,370.4375 1.078125,0 0,6.5625 -1.078125,0 0,-6.5625 z m 0,-2.55469 1.078125,0 0,1.36524 -1.078125,0 0,-1.36524 z" />
      <path
         id="path90"
         style=""
         d="m 58.40625,373.03906 0,3.96094 -1.078125,0 0,-3.92578 q 0,-0.93164 -0.363281,-1.39453 -0.363282,-0.46289 -1.089844,-0.46289 -0.873047,0 -1.376953,0.55664 -0.503906,0.55664 -0.503906,1.51758 l 0,3.70898 -1.083985,0 0,-6.5625 1.083985,0 0,1.01953 q 0.386718,-0.5918 0.908203,-0.88476 0.527343,-0.29297 1.21289,-0.29297 1.13086,0 1.710938,0.70312 0.580078,0.69727 0.580078,2.05664 z" />
      <path
         id="path92"
         style=""
         d="m 66.181641,373.44922 0,0.52734 -4.957032,0 q 0.07031,1.11328 0.667969,1.69922 0.603516,0.58008 1.675781,0.58008 0.621094,0 1.201172,-0.15234 0.585938,-0.15235 1.160156,-0.45704 l 0,1.01954 q -0.580078,0.24609 -1.189453,0.375 -0.609375,0.1289 -1.236328,0.1289 -1.570312,0 -2.490234,-0.91406 -0.914063,-0.91406 -0.914063,-2.47266 0,-1.61133 0.867188,-2.55468 0.873047,-0.94922 2.349609,-0.94922 1.324219,0 2.091797,0.85547 0.773438,0.8496 0.773438,2.31445 z m -1.078125,-0.31641 q -0.01172,-0.88476 -0.498047,-1.41211 -0.480469,-0.52734 -1.277344,-0.52734 -0.902344,0 -1.447266,0.50976 -0.539062,0.50977 -0.621093,1.43555 l 3.84375,-0.006 z" />
    </g>
    <g
       id="text10"
       style="text-anchor:middle">
      <path
         id="path95"
         style="text-anchor:middle"
         d="m 52.535156,3.2519531 1.195313,0 1.839843,7.3945309 1.833985,-7.3945309 1.330078,0 1.839844,7.3945309 1.833984,-7.3945309 1.201172,0 L 61.412109,12 59.923828,12 58.078125,4.40625 56.214844,12 54.726562,12 52.535156,3.2519531 Z" />
      <path
         id="path97"
         style="text-anchor:middle"
         d="m 65.173828,3.2519531 1.183594,0 0,3.6972656 3.925781,-3.6972656 1.523438,0 -4.341797,4.078125 L 72.117187,12 l -1.558593,0 -4.201172,-4.2128906 0,4.2128906 -1.183594,0 0,-8.7480469 z" />
      <path
         id="path99"
         style="text-anchor:middle"
         d="m 71.191406,8.2324219 3.158203,0 0,0.9609375 -3.158203,0 0,-0.9609375 z" />
      <path
         id="path101"
         style="text-anchor:middle"
         d="m 76.429687,11.003906 1.933594,0 0,-6.6738279 -2.103515,0.421875 0,-1.078125 2.091796,-0.421875 1.183594,0 0,7.7519529 1.933594,0 0,0.996094 -5.039063,0 0,-0.996094 z" />
      <path
         id="path103"
         style="text-anchor:middle"
         d="m 84.070312,11.003906 1.933594,0 0,-6.6738279 -2.103515,0.421875 0,-1.078125 2.091796,-0.421875 1.183594,0 0,7.7519529 1.933594,0 0,0.996094 -5.039063,0 0,-0.996094 z" />
      <path
         id="path105"
         style="text-anchor:middle"
         d="m 92.525391,11.003906 4.130859,0 0,0.996094 -5.554688,0 0,-0.996094 q 0.673829,-0.697265 1.833985,-1.8691404 1.166015,-1.1777344 1.464844,-1.5175781 0.568359,-0.6386719 0.791015,-1.078125 0.228516,-0.4453125 0.228516,-0.8730469 0,-0.6972656 -0.492188,-1.1367187 -0.486328,-0.4394532 -1.271484,-0.4394532 -0.556641,0 -1.177734,0.1933594 -0.615235,0.1933594 -1.31836,0.5859375 l 0,-1.1953125 Q 91.875,3.3867188 92.496094,3.2402344 93.117187,3.09375 93.632812,3.09375 q 1.359375,0 2.167969,0.6796875 0.808594,0.6796875 0.808594,1.8164062 0,0.5390625 -0.205078,1.0253907 -0.199219,0.4804687 -0.732422,1.1367187 -0.146484,0.1699219 -0.931641,0.984375 -0.785156,0.8085938 -2.214843,2.2675779 z" />
    </g>
  </g>
  <g
     style="font-size:8px;font-family:'DejaVu Sans';fill:#719fcf;stroke:#719fcf;stroke-width:1;stroke-linecap:round;stroke-linejoin:round"
     id="g12"
     font-size="8">
    <path
       id="path14"
       d="m 3.5,360.5 143,0 0,-20 -40,0 a 1,1 0 0 1 -1,-1 l 0,-9 -61,0 a 1,1 0 0 1 -1,-1 l 0,-9 -40,0 z" />
    <path
       id="path16"
       d="m 3.5,318.5 40,0 0,-9 a 1,1 0 0 1 1,-1 l 61,0 0,-9 a 1,1 0 0 1 1,-1 l 40,0 -40,0 a 1,1 0 0 1 -1,-1 l 0,-9 -61,0 a 1,1 0 0 1 -1,-1 l 0,-9 -40,0 z" />
    <path
       id="path18"
       d="m 3.5,276.5 40,0 0,-9 a 1,1 0 0 1 1,-1 l 61,0 0,-9 a 1,1 0 0 1 1,-1 l 40,0 -40,0 a 1,1 0 0 1 -1,-1 l 0,-9 -61,0 a 1,1 0 0 1 -1,-1 l 0,-9 -40,0 z" />
    <path
       id="path20"
       d="m 3.5,234.5 40,0 0,-9 a 1,1 0 0 1 1,-1 l 61,0 0,-9 a 1,1 0 0 1 1,-1 l 40,0 0,-20 -143,0 z" />
    <path
       id="path22"
       d="m 3.5,192.5 143,0 0,-20 -40,0 a 1,1 0 0 1 -1,-1 l 0,-9 -61,0 a 1,1 0 0 1 -1,-1 l 0,-9 -40,0 z" />
    <path
       id="path24"
       d="m 3.5,150.5 40,0 0,-9 a 1,1 0 0 1 1,-1 l 61,0 0,-9 a 1,1 0 0 1 1,-1 l 40,0 -40,0 a 1,1 0 0 1 -1,-1 l 0,-9 -61,0 a 1,1 0 0 1 -1,-1 l 0,-9 -40,0 z" />
    <path
       id="path26"
       d="m 3.5,108.5 40,0 0,-9 a 1,1 0 0 1 1,-1 l 61,0 0,-9 a 1,1 0 0 1 1,-1 l 40,0 0,-20 -143,0 z" />
  </g>
  <g
     style="fill:#000000;stroke:none"
     id="g28">
    <path
       id="rect30"
       d="m 52,80 46,0 c 2.77,0 5,2.23 5,5 l 0,7 c 0,2.77 -2.23,5 -5,5 l -46,0 c -2.77,0 -5,-2.23 -5,-5 l 0,-7 c 0,-2.77 2.23,-5 5,-5 z"
       style="" />
    <path
       id="rect32"
       d="m 52,101 46,0 c 2.77,0 5,2.23 5,5 l 0,7 c 0,2.77 -2.23,5 -5,5 l -46,0 c -2.77,0 -5,-2.23 -5,-5 l 0,-7 c 0,-2.77 2.23,-5 5,-5 z"
       style="" />
    <path
       id="rect34"
       d="m 52,122 46,0 c 2.77,0 5,2.23 5,5 l 0,7 c 0,2.77 -2.23,5 -5,5 l -46,0 c -2.77,0 -5,-2.23 -5,-5 l 0,-7 c 0,-2.77 2.23,-5 5,-5 z"
       style="" />
    <path
       id="rect36"
       d="m 52,143 46,0 c 2.77,0 5,2.23 5,5 l 0,7 c 0,2.77 -2.23,5 -5,5 l -46,0 c -2.77,0 -5,-2.23 -5,-5 l 0,-7 c 0,-2.77 2.23,-5 5,-5 z"
       style="" />
    <path
       id="rect38"
       d="m 52,164 46,0 c 2.77,0 5,2.23 5,5 l 0,7 c 0,2.77 -2.23,5 -5,5 l -46,0 c -2.77,0 -5,-2.23 -5,-5 l 0,-7 c 0,-2.77 2.23,-5 5,-5 z"
       style="" />
    <path
       id="rect40"
       d="m 52,206 46,0 c 2.77,0 5,2.23 5,5 l 0,7 c 0,2.77 -2.23,5 -5,5 l -46,0 c -2.77,0 -5,-2.23 -5,-5 l 0,-7 c 0,-2.77 2.23,-5 5,-5 z"
       style="" />
    <path
       id="rect42"
       d="m 52,227 46,0 c 2.77,0 5,2.23 5,5 l 0,7 c 0,2.77 -2.23,5 -5,5 l -46,0 c -2.77,0 -5,-2.23 -5,-5 l 0,-7 c 0,-2.77 2.23,-5 5,-5 z"
       style="" />
    <path
       id="rect44"
       d="m 52,248 46,0 c 2.77,0 5,2.23 5,5 l 0,7 c 0,2.77 -2.23,5 -5,5 l -46,0 c -2.77,0 -5,-2.23 -5,-5 l 0,-7 c 0,-2.77 2.23,-5 5,-5 z"
       style="" />
    <path
       id="rect46"
       d="m 52,269 46,0 c 2.77,0 5,2.23 5,5 l 0,7 c 0,2.77 -2.23,5 -5,5 l -46,0 c -2.77,0 -5,-2.23 -5,-5 l 0,-7 c 0,-2.77 2.23,-5 5,-5 z"
       style="" />
    <path
       id="rect48"
       d="m 52,290 46,0 c 2.77,0 5,2.23 5,5 l 0,7 c 0,2.77 -2.23,5 -5,5 l -46,0 c -2.77,0 -5,-2.23 -5,-5 l 0,-7 c 0,-2.77 2.23,-5 5,-5 z"
       style="" />
    <path
       id="rect50"
       d="m 52,311 46,0 c 2.77,0 5,2.23 5,5 l 0,7 c 0,2.77 -2.23,5 -5,5 l -46,0 c -2.77,0 -5,-2.23 -5,-5 l 0,-7 c 0,-2.77 2.23,-5 5,-5 z"
       style="" />
    <path
       id="rect52"
       d="m 52,332 46,0 c 2.77,0 5,2.23 5,5 l 0,7 c 0,2.77 -2.23,5 -5,5 l -46,0 c -2.77,0 -5,-2.23 -5,-5 l 0,-7 c 0,-2.77 2.23,-5 5,-5 z"
       style="" />
  </g>
  <g
     style="font-size:8px;font-family:'DejaVu Sans';fill:#ffffff;stroke:none"
     id="g54"
     font-size="8">
    <g
       id="text56"
       style="text-anchor:middle">
      <path
         id="path120"
         style="text-anchor:middle"
         d="m 25.8125,25 -2.226563,-5.832031 0.824219,0 1.847656,4.910156 1.851563,-4.910156 0.820312,0 L 26.707031,25 25.8125,25 Z" />
      <path
         id="path122"
         style="text-anchor:middle"
         d="m 31.023437,19.167969 0.664063,0 -2.03125,6.574218 -0.664063,0 2.03125,-6.574218 z" />
      <path
         id="path124"
         style="text-anchor:middle"
         d="m 34.847656,19.703125 q -0.859375,0 -1.367187,0.640625 -0.503907,0.640625 -0.503907,1.746094 0,1.101562 0.503907,1.742187 0.507812,0.640625 1.367187,0.640625 0.859375,0 1.359375,-0.640625 0.503906,-0.640625 0.503906,-1.742187 0,-1.105469 -0.503906,-1.746094 -0.5,-0.640625 -1.359375,-0.640625 z m 0,-0.640625 q 1.226563,0 1.960938,0.824219 0.734375,0.820312 0.734375,2.203125 0,1.378906 -0.734375,2.203125 -0.734375,0.820312 -1.960938,0.820312 -1.230469,0 -1.96875,-0.820312 -0.734375,-0.820313 -0.734375,-2.203125 0,-1.382813 0.734375,-2.203125 0.738281,-0.824219 1.96875,-0.824219 z" />
      <path
         id="path126"
         style="text-anchor:middle"
         d="m 43.144531,19.617187 0,0.832032 q -0.398437,-0.371094 -0.851562,-0.554688 -0.449219,-0.183594 -0.957032,-0.183594 -1,0 -1.53125,0.613282 -0.53125,0.609375 -0.53125,1.765625 0,1.152343 0.53125,1.765625 0.53125,0.609375 1.53125,0.609375 0.507813,0 0.957032,-0.183594 0.453125,-0.183594 0.851562,-0.554688 l 0,0.824219 q -0.414062,0.28125 -0.878906,0.421875 -0.460938,0.140625 -0.976563,0.140625 -1.324218,0 -2.085937,-0.808594 -0.761719,-0.8125 -0.761719,-2.214843 0,-1.40625 0.761719,-2.214844 0.761719,-0.8125 2.085937,-0.8125 0.523438,0 0.984375,0.140625 0.464844,0.136719 0.871094,0.414062 z" />
      <path
         id="path128"
         style="text-anchor:middle"
         d="m 43.5625,19.167969 4.933594,0 0,0.664062 -2.070313,0 0,5.167969 -0.792969,0 0,-5.167969 -2.070312,0 0,-0.664062 z" />
    </g>
    <g
       id="text58"
       style="text-anchor:middle">
      <path
         id="path131"
         style="text-anchor:middle"
         d="m 94.429687,19.167969 4.933594,0 0,0.664062 -2.070312,0 0,5.167969 -0.792969,0 0,-5.167969 -2.070313,0 0,-0.664062 z" />
      <path
         id="path133"
         style="text-anchor:middle"
         d="m 102.49609,19.703125 q -0.85937,0 -1.36718,0.640625 -0.50391,0.640625 -0.50391,1.746094 0,1.101562 0.50391,1.742187 0.50781,0.640625 1.36718,0.640625 0.85938,0 1.35938,-0.640625 0.50391,-0.640625 0.50391,-1.742187 0,-1.105469 -0.50391,-1.746094 -0.5,-0.640625 -1.35938,-0.640625 z m 0,-0.640625 q 1.22657,0 1.96094,0.824219 0.73438,0.820312 0.73438,2.203125 0,1.378906 -0.73438,2.203125 -0.73437,0.820312 -1.96094,0.820312 -1.23046,0 -1.96875,-0.820312 -0.734371,-0.820313 -0.734371,-2.203125 0,-1.382813 0.734371,-2.203125 0.73829,-0.824219 1.96875,-0.824219 z" />
      <path
         id="path135"
         style="text-anchor:middle"
         d="m 109.19141,22.265625 q 0.2539,0.08594 0.49218,0.367187 0.24219,0.28125 0.48438,0.773438 L 110.96875,25 110.12109,25 109.375,23.503906 q -0.28906,-0.585937 -0.5625,-0.777344 -0.26953,-0.191406 -0.73828,-0.191406 l -0.85938,0 0,2.464844 -0.78906,0 0,-5.832031 1.78125,0 q 1,0 1.49219,0.417968 0.49219,0.417969 0.49219,1.261719 0,0.550781 -0.25782,0.914063 -0.2539,0.363281 -0.74218,0.503906 z m -1.97657,-2.449219 0,2.070313 0.99219,0 q 0.57031,0 0.85938,-0.261719 0.29297,-0.265625 0.29297,-0.777344 0,-0.511719 -0.29297,-0.769531 -0.28907,-0.261719 -0.85938,-0.261719 l -0.99219,0 z" />
      <path
         id="path137"
         style="text-anchor:middle"
         d="m 112.77734,19.816406 0,2.191406 0.99219,0 q 0.55078,0 0.85156,-0.285156 0.30079,-0.285156 0.30079,-0.8125 0,-0.523437 -0.30079,-0.808594 -0.30078,-0.285156 -0.85156,-0.285156 l -0.99219,0 z m -0.78906,-0.648437 1.78125,0 q 0.98047,0 1.48047,0.445312 0.50391,0.441406 0.50391,1.296875 0,0.863281 -0.50391,1.304688 -0.5,0.441406 -1.48047,0.441406 l -0.99219,0 0,2.34375 -0.78906,0 0,-5.832031 z" />
      <path
         id="path139"
         style="text-anchor:middle"
         d="m 116.81641,19.167969 3.6875,0 0,0.664062 -2.89844,0 0,1.726563 2.77734,0 0,0.664062 -2.77734,0 0,2.113281 2.96875,0 0,0.664063 -3.75781,0 0,-5.832031 z" />
      <path
         id="path141"
         style="text-anchor:middle"
         d="m 122.66797,19.816406 0,4.535156 0.95312,0 q 1.20704,0 1.76563,-0.546875 0.5625,-0.546875 0.5625,-1.726562 0,-1.171875 -0.5625,-1.714844 -0.55859,-0.546875 -1.76563,-0.546875 l -0.95312,0 z m -0.78906,-0.648437 1.62109,0 q 1.69531,0 2.48828,0.707031 0.79297,0.703125 0.79297,2.203125 0,1.507812 -0.79687,2.214844 Q 125.1875,25 123.5,25 l -1.62109,0 0,-5.832031 z" />
      <path
         id="path143"
         style="text-anchor:middle"
         d="m 130.40234,19.703125 q -0.85937,0 -1.36718,0.640625 -0.50391,0.640625 -0.50391,1.746094 0,1.101562 0.50391,1.742187 0.50781,0.640625 1.36718,0.640625 0.85938,0 1.35938,-0.640625 0.5039,-0.640625 0.5039,-1.742187 0,-1.105469 -0.5039,-1.746094 -0.5,-0.640625 -1.35938,-0.640625 z m 0,-0.640625 q 1.22657,0 1.96094,0.824219 0.73438,0.820312 0.73438,2.203125 0,1.378906 -0.73438,2.203125 -0.73437,0.820312 -1.96094,0.820312 -1.23047,0 -1.96875,-0.820312 -0.73437,-0.820313 -0.73437,-2.203125 0,-1.382813 0.73437,-2.203125 0.73828,-0.824219 1.96875,-0.824219 z" />
    </g>
    <g
       id="text60"
       style="text-anchor:middle">
      <path
         id="path146"
         style="text-anchor:middle"
         d="m 13.113281,55.167969 0.789063,0 0,5.832031 -0.789063,0 0,-5.832031 z" />
      <path
         id="path148"
         style="text-anchor:middle"
         d="m 15.472656,55.167969 1.0625,0 2.585938,4.878906 0,-4.878906 0.765625,0 0,5.832031 -1.0625,0 -2.585938,-4.878906 0,4.878906 -0.765625,0 0,-5.832031 z" />
    </g>
    <g
       id="text62"
       style="text-anchor:middle">
      <path
         id="path151"
         style="text-anchor:middle"
         d="m 50.128906,55.703125 q -0.859375,0 -1.367187,0.640625 -0.503907,0.640625 -0.503907,1.746094 0,1.101562 0.503907,1.742187 0.507812,0.640625 1.367187,0.640625 0.859375,0 1.359375,-0.640625 0.503906,-0.640625 0.503906,-1.742187 0,-1.105469 -0.503906,-1.746094 -0.5,-0.640625 -1.359375,-0.640625 z m 0,-0.640625 q 1.226563,0 1.960938,0.824219 0.734375,0.820312 0.734375,2.203125 0,1.378906 -0.734375,2.203125 -0.734375,0.820312 -1.960938,0.820312 -1.230469,0 -1.96875,-0.820312 -0.734375,-0.820313 -0.734375,-2.203125 0,-1.382813 0.734375,-2.203125 0.738281,-0.824219 1.96875,-0.824219 z" />
      <path
         id="path153"
         style="text-anchor:middle"
         d="m 53.96875,55.167969 0.792969,0 0,3.542968 q 0,0.9375 0.339843,1.351563 0.339844,0.410156 1.101563,0.410156 0.757812,0 1.097656,-0.410156 0.339844,-0.414063 0.339844,-1.351563 l 0,-3.542968 0.792969,0 0,3.640625 q 0,1.140625 -0.566407,1.722656 -0.5625,0.582031 -1.664062,0.582031 -1.105469,0 -1.671875,-0.582031 -0.5625,-0.582031 -0.5625,-1.722656 l 0,-3.640625 z" />
      <path
         id="path155"
         style="text-anchor:middle"
         d="m 59.109375,55.167969 4.933594,0 0,0.664062 -2.070313,0 0,5.167969 -0.792969,0 0,-5.167969 -2.070312,0 0,-0.664062 z" />
    </g>
    <g
       id="text64"
       style="text-anchor:middle">
      <path
         id="path158"
         style="text-anchor:middle"
         d="m 91.113281,55.167969 0.789063,0 0,5.832031 -0.789063,0 0,-5.832031 z" />
      <path
         id="path160"
         style="text-anchor:middle"
         d="m 93.472656,55.167969 1.0625,0 2.585938,4.878906 0,-4.878906 0.765625,0 0,5.832031 -1.0625,0 -2.585938,-4.878906 0,4.878906 -0.765625,0 0,-5.832031 z" />
    </g>
    <g
       id="text66"
       style="text-anchor:middle">
      <path
         id="path163"
         style="text-anchor:middle"
         d="m 128.12891,55.703125 q -0.85938,0 -1.36719,0.640625 -0.50391,0.640625 -0.50391,1.746094 0,1.101562 0.50391,1.742187 0.50781,0.640625 1.36719,0.640625 0.85937,0 1.35937,-0.640625 0.50391,-0.640625 0.50391,-1.742187 0,-1.105469 -0.50391,-1.746094 -0.5,-0.640625 -1.35937,-0.640625 z m 0,-0.640625 q 1.22656,0 1.96093,0.824219 0.73438,0.820312 0.73438,2.203125 0,1.378906 -0.73438,2.203125 -0.73437,0.820312 -1.96093,0.820312 -1.23047,0 -1.96875,-0.820312 -0.73438,-0.820313 -0.73438,-2.203125 0,-1.382813 0.73438,-2.203125 0.73828,-0.824219 1.96875,-0.824219 z" />
      <path
         id="path165"
         style="text-anchor:middle"
         d="m 131.96875,55.167969 0.79297,0 0,3.542968 q 0,0.9375 0.33984,1.351563 0.33985,0.410156 1.10156,0.410156 0.75782,0 1.09766,-0.410156 0.33984,-0.414063 0.33984,-1.351563 l 0,-3.542968 0.79297,0 0,3.640625 q 0,1.140625 -0.5664,1.722656 -0.5625,0.582031 -1.66407,0.582031 -1.10546,0 -1.67187,-0.582031 -0.5625,-0.582031 -0.5625,-1.722656 l 0,-3.640625 z" />
      <path
         id="path167"
         style="text-anchor:middle"
         d="m 137.10937,55.167969 4.9336,0 0,0.664062 -2.07031,0 0,5.167969 -0.79297,0 0,-5.167969 -2.07032,0 0,-0.664062 z" />
    </g>
  </g>
</svg>
