<?xml version="1.0" encoding="UTF-8" standalone="no"?>
<svg
   xmlns="http://www.w3.org/2000/svg"
   xmlns:inkscape="http://www.inkscape.org/namespaces/inkscape"
   width="90px"
   height="380px"
   version="1.1"
   inkscape:version="0.91 r13725"
   id="svg4652">
  <defs
     id="defs4213" />
  <g
     inkscape:label="Background"
     inkscape:groupmode="layer"
     id="background">
    <rect
       x="0"
       y="0"
       width="90"
       height="380"
       style="fill:#294f77;stroke:none;"
       id="rect4255" />
    <path
       style="fill:#3a6ea5;fill-rule:nonzero;stroke:none"
       d="m 0 380 v -380 h 90 l -1 1 h -88 v 378 z"
       id="path4656" />
    <path
       style="fill:#182d44;fill-rule:nonzero;stroke:none"
       d="m 0 380 h 90 v -380 l -1 1 v 378 h -88 z"
       id="path4658" />
  </g>
  <g
     inkscape:label="Logo"
     inkscape:groupmode="layer"
     id="logo"
     fill="#719fcf"
     font-family="DejaVu Sans"
     font-size="12">
    <path
       d="m 79.35391,366 a 1.9846094,2.2519786 0 0 0 -1.98465,2.25192 1.9846094,2.2519786 0 0 0 0.0588,0.53167 A 8.1692063,5.1693144 0 0 0 71,373.83071 8.1692063,5.1693144 0 0 0 79.16915,379 8.1692063,5.1693144 0 0 0 86.48278,376.11985 3.0461447,4.2480502 0 0 0 89,377.97641 l 0,-2.35772 A 1.3384576,1.9448905 0 0 1 87.7077,373.67718 1.3384576,1.9448905 0 0 1 89,371.73455 l 0,-2.25416 a 3.0461447,4.2480502 0 0 0 -2.57413,1.97944 8.1692063,5.1693144 0 0 0 -7.25672,-2.79842 8.1692063,5.1693144 0 0 0 -0.37318,0.0119 1.7538409,2.0472531 0 0 1 0.69638,-1.00162 l 0,-1.66609 A 1.9846094,2.2519786 0 0 0 79.35391,366 Z m -3.27707,5.83461 a 1.6615335,1.8425278 0 0 1 1.66156,1.84257 1.6615335,1.8425278 0 0 1 -1.66156,1.84257 1.6615335,1.8425278 0 0 1 -1.66145,-1.84257 1.6615335,1.8425278 0 0 1 1.66145,-1.84257 z m 3.78465,0.40949 a 1.2923038,1.4330772 0 0 1 1.29231,1.43308 1.2923038,1.4330772 0 0 1 -1.29231,1.43308 1.2923038,1.4330772 0 0 1 -1.2923,-1.43308 1.2923038,1.4330772 0 0 1 1.2923,-1.43308 z m 3.00928,0.38892 a 0.92307415,1.0236265 0 0 1 0.92304,1.02373 0.92307415,1.0236265 0 0 1 -0.92304,1.02359 0.92307415,1.0236265 0 0 1 -0.92317,-1.02359 0.92307415,1.0236265 0 0 1 0.92317,-1.02373 z"
       id="path4136"
       inkscape:connector-curvature="0" />
    <text
       x="3"
       y="377"
       id="text4662">submarine</text>
    <text x="45" y="12" text-anchor="middle">XF-102</text>
  </g>
  <g
     inkscape:label="Group"
     inkscape:groupmode="layer"
     id="group1"
     font-family="DejaVu Sans"
     font-size="8"
     stroke="#ffffff"
     stroke-width="1"
     stroke-linecap="round"
     stroke-linejoin="round"
     fill="none">
    <line x1="43" y1="190.5" x2="87" y2="190.5" stroke="#719fcf"/>
    <line x1="57.5" y1="176" x2="57.5" y2="180"/>
    <rect x="4.5" y="18" width="24" height="45" rx="12" ry="12"/>
    <rect x="33" y="18" width="24" height="45" rx="12" ry="12"/>
    <rect x="61.5" y="18" width="24" height="45" rx="12" ry="12" fill="#ffffff"/>
    <path d="M 20 124.5 l 4 -4 A 30 30 0 1 1 66 120.5 l 4 4"/>
    <line x1="57.5" y1="358" x2="57.5" y2="362"/>
    <rect x="4.5" y="133" width="24" height="45" rx="12" ry="12"/>
    <rect x="4.5" y="200" width="24" height="45" rx="12" ry="12"/>
    <rect x="33" y="200" width="24" height="45" rx="12" ry="12"/>
    <rect x="61.5" y="200" width="24" height="45" rx="12" ry="12" fill="#ffffff"/>
    <path d="M 20 306.5 l 4 -4 A 30 30 0 1 1 66 302.5 l 4 4"/>
    <rect x="4.5" y="315" width="24" height="45" rx="12" ry="12"/>
    <g
       fill="#ffffff"
       stroke="none">
      <text x="16.5" y="35" text-anchor="middle" font-size="16">A</text>
      <text x="45" y="35" text-anchor="middle" font-size="16">B</text>
      <text x="73.5" y="35" text-anchor="middle" font-size="18" fill="#294f77">&#x21a6;</text>
      <text x="12" y="128" font-size="10">A</text>
      <text x="72" y="128" font-size="10">B</text>
      <text x="16.5" y="171" text-anchor="middle" font-size="15">CV</text>
      <text x="52" y="138">BI</text>
      <text x="65" y="138">UNI</text>
      <text x="54" y="182" text-anchor="end">LN</text>
      <text x="66" y="182" text-anchor="middle">LG</text>
      <text x="74" y="182">AU</text>
      <text x="5" y="193" fill="#719fcf">LINK</text>
      <text x="16.5" y="217" text-anchor="middle" font-size="16">A</text>
      <text x="45" y="217" text-anchor="middle" font-size="16">B</text>
      <text x="73.5" y="217" text-anchor="middle" font-size="18" fill="#294f77">&#x21a6;</text>
      <text x="12" y="310" font-size="10">A</text>
      <text x="72" y="310" font-size="10">B</text>
      <text x="16.5" y="353" text-anchor="middle" font-size="15">CV</text>
      <text x="52" y="320">BI</text>
      <text x="65" y="320">UNI</text>
      <text x="54" y="364" text-anchor="end">LN</text>
      <text x="66" y="364" text-anchor="middle">LG</text>
      <text x="74" y="364">AU</text>
    </g>
  </g>
  <g
     inkscape:label="Cutout"
     inkscape:groupmode="layer"
     id="cutout"
     fill="#000000">
    <circle cx="16.5" cy="51" r="12.5"/>
    <circle cx="45" cy="51" r="12.5"/>
    <circle cx="73.5" cy="51" r="12.5"/>
    <circle cx="45" cy="99" r="27"/>
    <circle cx="16.5" cy="145" r="12.5"/>
    <rect x="52.5" y="140" width="25" height="14" rx="7" ry="7"/>
    <rect x="49" y="157" width="32" height="14" rx="7" ry="7"/>
    <rect x="25" y="182.5" width="16" height="16" rx="3" ry="3"/>
    <circle cx="16.5" cy="233" r="12.5"/>
    <circle cx="45" cy="233" r="12.5"/>
    <circle cx="73.5" cy="233" r="12.5"/>
    <circle cx="45" cy="281" r="27"/>
    <circle cx="16.5" cy="327" r="12.5"/>
    <rect x="52.5" y="322" width="25" height="14" rx="7" ry="7"/>
    <rect x="49" y="339" width="32" height="14" rx="7" ry="7"/>
  </g>
</svg>
